<?xml version="1.0" encoding="UTF-8" standalone="no"?>
<svg
   xmlns:dc="http://purl.org/dc/elements/1.1/"
   xmlns:cc="http://creativecommons.org/ns#"
   xmlns:rdf="http://www.w3.org/1999/02/22-rdf-syntax-ns#"
   xmlns:svg="http://www.w3.org/2000/svg"
   xmlns="http://www.w3.org/2000/svg"
   xmlns:sodipodi="http://sodipodi.sourceforge.net/DTD/sodipodi-0.dtd"
   xmlns:inkscape="http://www.inkscape.org/namespaces/inkscape"
   viewBox="0 0 294334 333333"
   shape-rendering="geometricPrecision"
   text-rendering="geometricPrecision"
   image-rendering="optimizeQuality"
   fill-rule="evenodd"
   clip-rule="evenodd"
   version="1.1"
   id="svg12"
   sodipodi:docname="icon-discord.svg"
   inkscape:version="1.0.1 (3bc2e813f5, 2020-09-07)">
  <metadata
     id="metadata16">
    <rdf:RDF>
      <cc:Work
         rdf:about="">
        <dc:format>image/svg+xml</dc:format>
        <dc:type
           rdf:resource="http://purl.org/dc/dcmitype/StillImage" />
      </cc:Work>
    </rdf:RDF>
  </metadata>
  <sodipodi:namedview
     pagecolor="#ffffff"
     bordercolor="#666666"
     borderopacity="1"
     objecttolerance="10"
     gridtolerance="10"
     guidetolerance="10"
     inkscape:pageopacity="0"
     inkscape:pageshadow="2"
     inkscape:window-width="1858"
     inkscape:window-height="1057"
     id="namedview14"
     showgrid="false"
     inkscape:zoom="0.01"
     inkscape:cx="203967"
     inkscape:cy="194666.5"
     inkscape:window-x="54"
     inkscape:window-y="-8"
     inkscape:window-maximized="1"
     inkscape:current-layer="svg12" />
  <defs
     id="defs4">
    <style
       id="style2">.fil0{fill:#7289da}</style>
  </defs>
  <rect
     style="fill:#ffffff;stroke:#000000;stroke-width:7.55906;stroke-linecap:round;stroke-linejoin:round;stroke-dashoffset:15.1181"
     id="rect841"
     width="230900"
     height="169400"
     x="41400"
     y="55700" />
  <g
     id="Layer_x0020_1">
    <g
       id="_489768256">
      <path
         class="fil0"
         d="M178012 139855c-9581 0-17146 8237-17146 18491s7733 18491 17146 18491c9581 0 17146-8237 17146-18491s-7733-18491-17146-18491zm-61354 0c-9581 0-17146 8237-17146 18491s7733 18491 17146 18491c9581 0 17146-8237 17146-18491 168-10254-7564-18491-17146-18491z"
         id="path6" />
      <path
         class="fil0"
         d="M259706 0H34459C15465 0 0 15465 0 34459v225247c0 18995 15465 34459 34459 34459h190620l-8909-30761 21516 19835 20339 18659 36309 31434V34458C294166 15464 278701-1 259706-1zm-64885 217683s-6052-7228-11094-13448c22020-6219 30425-19835 30425-19835-6892 4539-13448 7733-19331 9918-8405 3530-16474 5715-24374 7228-16137 3026-30929 2185-43537-168-9581-1849-17818-4370-24710-7228-3866-1513-8068-3362-12271-5715-504-336-1009-504-1513-840-336-168-504-337-672-337-3026-1681-4707-2857-4707-2857s8068 13280 29417 19667c-5043 6388-11263 13784-11263 13784-37149-1177-51269-25383-51269-25383 0-53622 24205-97159 24205-97159 24206-17986 47067-17482 47067-17482l1681 2017c-30257 8573-44041 21853-44041 21853s3698-2017 9918-4707c17987-7901 32274-9918 38158-10590 1009-168 1849-336 2857-336 10254-1345 21853-1681 33955-337 15969 1849 33115 6556 50596 15969 0 0-13280-12607-41855-21180l2354-2689s23029-504 47066 17482c0 0 24206 43537 24206 97159 0-168-14120 24038-51269 25215z"
         id="path8" />
    </g>
  </g>
</svg>
