<?xml version="1.0" encoding="UTF-8" standalone="no"?>
<svg
   xmlns:dc="http://purl.org/dc/elements/1.1/"
   xmlns:cc="http://creativecommons.org/ns#"
   xmlns:rdf="http://www.w3.org/1999/02/22-rdf-syntax-ns#"
   xmlns:svg="http://www.w3.org/2000/svg"
   xmlns="http://www.w3.org/2000/svg"
   xmlns:sodipodi="http://sodipodi.sourceforge.net/DTD/sodipodi-0.dtd"
   xmlns:inkscape="http://www.inkscape.org/namespaces/inkscape"
   viewBox="0 0 333333 333333"
   shape-rendering="geometricPrecision"
   text-rendering="geometricPrecision"
   image-rendering="optimizeQuality"
   fill-rule="evenodd"
   clip-rule="evenodd"
   version="1.1"
   id="svg4"
   sodipodi:docname="icon-youtube.svg"
   inkscape:version="1.0.1 (3bc2e813f5, 2020-09-07)">
  <metadata
     id="metadata10">
    <rdf:RDF>
      <cc:Work
         rdf:about="">
        <dc:format>image/svg+xml</dc:format>
        <dc:type
           rdf:resource="http://purl.org/dc/dcmitype/StillImage" />
      </cc:Work>
    </rdf:RDF>
  </metadata>
  <defs
     id="defs8" />
  <sodipodi:namedview
     pagecolor="#ffffff"
     bordercolor="#666666"
     borderopacity="1"
     objecttolerance="10"
     gridtolerance="10"
     guidetolerance="10"
     inkscape:pageopacity="0"
     inkscape:pageshadow="2"
     inkscape:window-width="1858"
     inkscape:window-height="1057"
     id="namedview6"
     showgrid="false"
     inkscape:zoom="0.01"
     inkscape:cx="167873.08"
     inkscape:cy="156330.34"
     inkscape:window-x="54"
     inkscape:window-y="-8"
     inkscape:window-maximized="1"
     inkscape:current-layer="svg4" />
  <rect
     style="fill:#ffffff;stroke:#000000;stroke-width:7.55906;stroke-linecap:round;stroke-linejoin:round;stroke-dashoffset:15.1181;fill-opacity:1"
     id="rect835"
     width="112400"
     height="109100"
     x="110700"
     y="110000" />
  <path
     d="M329930 100020s-3254-22976-13269-33065c-12691-13269-26901-13354-33397-14124-46609-3396-116614-3396-116614-3396h-122s-69973 0-116608 3396c-6522 793-20712 848-33397 14124C6501 77044 3316 100020 3316 100020S-1 126982-1 154001v25265c0 26962 3315 53979 3315 53979s3254 22976 13207 33082c12685 13269 29356 12838 36798 14254 26685 2547 113354 3315 113354 3315s70065-124 116675-3457c6522-770 20706-848 33397-14124 10021-10089 13269-33090 13269-33090s3319-26962 3319-53979v-25263c-67-26962-3384-53979-3384-53979l-18 18-2-2zM132123 209917v-93681l90046 46997-90046 46684z"
     fill="red"
     id="path2" />
</svg>
